<svg width="64" height="64" viewBox="0 0 64 64" fill="none" xmlns="http://www.w3.org/2000/svg">
<path d="M64 32C64 49.6731 49.6731 64 32 64C14.3269 64 0 49.6731 0 32C0 14.3269 14.3269 0 32 0C49.6731 0 64 14.3269 64 32Z" fill="#F48400"/>
<path d="M43.2386 29H40.0682C39.8807 28.0881 39.5526 27.2869 39.0838 26.5966C38.6236 25.9062 38.0611 25.3267 37.3963 24.858C36.7401 24.3807 36.0114 24.0227 35.2102 23.7841C34.4091 23.5455 33.5739 23.4261 32.7045 23.4261C31.1193 23.4261 29.6832 23.8267 28.3963 24.6278C27.1179 25.429 26.0994 26.6094 25.3409 28.169C24.5909 29.7287 24.2159 31.642 24.2159 33.9091C24.2159 36.1761 24.5909 38.0895 25.3409 39.6491C26.0994 41.2088 27.1179 42.3892 28.3963 43.1903C29.6832 43.9915 31.1193 44.392 32.7045 44.392C33.5739 44.392 34.4091 44.2727 35.2102 44.0341C36.0114 43.7955 36.7401 43.4418 37.3963 42.973C38.0611 42.4957 38.6236 41.9119 39.0838 41.2216C39.5526 40.5227 39.8807 39.7216 40.0682 38.8182H43.2386C43 40.1562 42.5653 41.3537 41.9347 42.4105C41.304 43.4673 40.5199 44.3665 39.5824 45.108C38.6449 45.8409 37.5923 46.3991 36.4247 46.7827C35.2656 47.1662 34.0256 47.358 32.7045 47.358C30.4716 47.358 28.4858 46.8125 26.7472 45.7216C25.0085 44.6307 23.6406 43.0795 22.6435 41.0682C21.6463 39.0568 21.1477 36.6705 21.1477 33.9091C21.1477 31.1477 21.6463 28.7614 22.6435 26.75C23.6406 24.7386 25.0085 23.1875 26.7472 22.0966C28.4858 21.0057 30.4716 20.4602 32.7045 20.4602C34.0256 20.4602 35.2656 20.652 36.4247 21.0355C37.5923 21.419 38.6449 21.9815 39.5824 22.723C40.5199 23.456 41.304 24.3509 41.9347 25.4077C42.5653 26.456 43 27.6534 43.2386 29Z" fill="white"/>
</svg>
