<svg width="64" height="64" viewBox="0 0 64 64" fill="none" xmlns="http://www.w3.org/2000/svg">
<circle cx="32" cy="32" r="32" fill="#BF360C"/>
<path d="M23 19H31.4727C33.3945 19 35.0176 19.293 36.3418 19.8789C37.6777 20.4648 38.6914 21.332 39.3828 22.4805C40.0859 23.6172 40.4375 25.0176 40.4375 26.6816C40.4375 27.8535 40.1973 28.9258 39.7168 29.8984C39.248 30.8594 38.5684 31.6797 37.6777 32.3594C36.7988 33.0273 35.7441 33.5254 34.5137 33.8535L33.5645 34.2227H25.6016L25.5664 31.4629H31.5781C32.7969 31.4629 33.8105 31.252 34.6191 30.8301C35.4277 30.3965 36.0371 29.8164 36.4473 29.0898C36.8574 28.3633 37.0625 27.5605 37.0625 26.6816C37.0625 25.6973 36.8691 24.8359 36.4824 24.0977C36.0957 23.3594 35.4863 22.791 34.6543 22.3926C33.834 21.9824 32.7734 21.7773 31.4727 21.7773H26.3926V44.5938H23V19ZM37.959 44.5938L31.7363 32.9922L35.2695 32.9746L41.5801 44.3828V44.5938H37.959Z" fill="white"/>
</svg>
